<svg xmlns="http://www.w3.org/2000/svg" height="134" width="134" viewBox="0 0 134 134">
  <path fill="#f60" d="M0 0c0-7.534-6.107-13.642-13.641-13.642-7.535 0-13.642 6.108-13.642 13.642s6.107 13.642 13.642 13.642C-6.107 13.642 0 7.534 0 0" transform="matrix(2.19695 0 0 -2.19695 74.323 101.632)"/>
  <path fill="#fc0" d="M0 0c0-7.533-6.107-13.642-13.641-13.642-7.535 0-13.642 6.109-13.642 13.642 0 7.534 6.107 13.643 13.642 13.643C-6.107 13.643 0 7.534 0 0" transform="matrix(2.19695 0 0 -2.19695 133.6 59.672)"/>
  <path fill="#0089cc" d="M0 0c0-7.533-6.107-13.642-13.642-13.642-7.533 0-13.641 6.109-13.641 13.642 0 7.534 6.108 13.643 13.641 13.643C-6.107 13.643 0 7.534 0 0" transform="matrix(2.19695 0 0 -2.19695 60.34 59.01)"/>
  <path fill="#009939" d="M0 0c0-7.534-6.107-13.642-13.643-13.642-7.533 0-13.641 6.108-13.641 13.642s6.108 13.642 13.641 13.642C-6.107 13.642 0 7.534 0 0" transform="matrix(2.19695 0 0 -2.19695 120.279 101.632)"/>
  <path fill="#bf0000" d="M0 0c0-7.534-6.108-13.642-13.642-13.642S-27.284-7.534-27.284 0s6.108 13.642 13.642 13.642S0 7.534 0 0" transform="matrix(2.19695 0 0 -2.19695 96.97 32.368)"/>
  <path fill="#fc0007" d="M0 0c0-.287.025-.568.043-.851C6.094.545 10.61 5.955 10.61 12.43c0 .287-.025.569-.043.852C4.516 11.885 0 6.475 0 0" transform="matrix(2.19695 0 0 -2.19695 73.66 59.672)"/>
  <path fill="#1cd306" d="M0 0c2.351-4.11 6.769-6.887 11.843-6.887 2.068 0 4.021.474 5.778 1.298-2.35 4.11-6.768 6.887-11.843 6.887C3.71 1.298 1.757.824 0 0" transform="matrix(2.19695 0 0 -2.19695 77.617 74.512)"/>
  <path fill="#0f7504" d="M0 0c0-3.333 1.198-6.383 3.184-8.752A13.583 13.583 0 0 1 6.366 0c0 3.333-1.198 6.383-3.182 8.752A13.574 13.574 0 0 1 0 0" transform="matrix(2.19695 0 0 -2.19695 60.34 101.632)"/>
  <path fill="#0c5e87" d="M0 0a13.578 13.578 0 0 1 5.401-1.117c5.024 0 9.401 2.723 11.769 6.766a13.581 13.581 0 0 1-5.401 1.116C6.745 6.765 2.367 4.042 0 0" transform="matrix(2.19695 0 0 -2.19695 18.502 86.525)"/>
  <path fill="#6b0001" d="M0 0c-.032-.38-.059-.762-.059-1.151 0-6.47 4.509-11.875 10.553-13.277.031.38.058.762.058 1.15C10.552-6.808 6.044-1.401 0 0" transform="matrix(2.19695 0 0 -2.19695 37.16 29.836)"/>
  <path fill="#fff" d="M0 0h-2.134A3.414 3.414 0 0 0-5.55 3.406v19.316a3.415 3.415 0 0 0 3.416 3.407h26.759a3.414 3.414 0 0 0 3.415-3.407V3.406A3.413 3.413 0 0 0 24.625 0h-9.116l-18.29-8.966z" transform="matrix(2.19695 0 0 -2.19695 39.958 97.92)"/>
</svg>
